<svg xmlns="http://www.w3.org/2000/svg" width="32" height="16" viewBox="0 0 32 16" shape-rendering="crispEdges">
<path fill="#111d25" d="M0 5h6V3h11v1h4v3h-1v2h1v3h-4v1h-5v2H8v-4H5V9H0z"/>
<path fill="#293b46" d="M1 6h5v2H1zM6 4h11v8H6zM9 11h2v3H9z"/>
<path fill="#536b76" d="M6 3h11v1H6zM7 5h9v2H7zM7 9h9v2H7zM17 4h4v3h-4zM17 9h4v3h-4z"/>
<path fill="#92acb2" d="M7 3h9v1H7zM17 4h4v1h-4zM17 9h4v1h-4z"/>
<path fill="#624e3b" d="M8 5h6v2H8zM8 9h6v2H8z"/>
<path fill="#b28c59" d="M8 5h6v1H8zM8 9h6v1H8zM3 5h2v1H3z"/>
<path fill="#9f5948" d="M15 4h2v8h-2z"/>
<path fill="#111d25" d="M19 5h2v2h-2zM19 9h2v2h-2zM10 7h4v2h-4z"/>
<path fill="#dce6d9" d="M18 4h2v1h-2zM18 9h2v1h-2z"/>
</svg>
